<svg width="30" height="30" viewBox="0 0 30 30" fill="none" xmlns="http://www.w3.org/2000/svg">
<g id="tag_svgrepo.com">
<path id="Vector" fill-rule="evenodd" clip-rule="evenodd" d="M2.6533 16.02C3.01273 17.2733 3.97869 18.2393 5.9106 20.1711L8.19765 22.4581C11.5589 25.8194 13.2395 27.5 15.3279 27.5C17.4163 27.5 19.0969 25.8194 22.4581 22.4581C25.8194 19.0969 27.5 17.4163 27.5 15.3279C27.5 13.2395 25.8194 11.5589 22.4581 8.19765L20.1711 5.9106C18.2393 3.97869 17.2733 3.01273 16.02 2.6533C14.7668 2.29387 13.4356 2.60104 10.7734 3.21539L9.23822 3.56968C6.9985 4.08653 5.87865 4.34497 5.1118 5.1118C4.34497 5.87865 4.08653 6.99852 3.56968 9.23822L3.21539 10.7734C2.60104 13.4356 2.29387 14.7668 2.6533 16.02ZM12.6543 9.08873C13.6388 10.0732 13.6388 11.6694 12.6543 12.6539C11.6698 13.6384 10.0736 13.6384 9.08912 12.6539C8.10464 11.6694 8.10464 10.0732 9.08912 9.08873C10.0736 8.10424 11.6698 8.10424 12.6543 9.08873ZM23.8139 15.0639L15.0901 23.7879C14.724 24.154 14.1304 24.154 13.7643 23.7879C13.3981 23.4219 13.3981 22.8283 13.7643 22.4621L22.488 13.738C22.8541 13.3719 23.4478 13.3719 23.8139 13.738C24.18 14.1041 24.18 14.6978 23.8139 15.0639Z" fill="#00B47E"/>
</g>
</svg>
